<svg version="1" xmlns="http://www.w3.org/2000/svg" width="1365.333" height="1365.333" viewBox="0 0 1024.000000 1024.000000"><path d="M473 1.5c-55.5 5-100.9 15.5-150 34.8-17.9 7.1-57.5 26.6-73.5 36.2-36.7 22.2-66.9 45.7-96.8 75.3-59.2 58.5-101.2 126.3-127 204.7-47.8 145.3-28.1 303.4 54.2 434 39.1 61.9 95.9 118.6 158.6 158.2 22.8 14.4 60.1 33.4 84 42.8 38.8 15.3 82.8 26.8 121.7 31.9 41.4 5.5 94.2 5.5 135.6 0 38.9-5.1 82.9-16.6 121.7-31.9 14.1-5.5 46.3-21 62-29.7 71.2-39.7 136.5-101.6 180.6-171.3 98.2-155.2 106.3-350.7 21.2-512-9.7-18.3-14.4-26.5-22.1-38.5-37.5-58.3-88.8-110.7-145.7-148.8-19.7-13.2-32.7-20.7-57.5-33C677.5 23 618.9 7 544.7 1c-16.9-1.3-53.6-1.1-71.7.5zM223 359.2c.6 1.3 11 39.4 23.1 84.8 12.1 45.3 22.2 82.6 22.4 82.8.3.3 5.1-19.4 21.1-86.5 5.4-22.7 10.1-40.9 10.5-40.5.7.8 39.9 144.1 39.9 145.9 0 1.6-31.8 118.3-33 121l-1 2.3h-46.4c-39.9 0-46.5-.2-47-1.5-.9-2.4-92.6-309.2-92.6-309.9 0-.3 23-.6 51-.6h51l1 2.2zm186 0c1.1 2.7 79 307 79 308.7 0 .8-12.9 1.1-49.2.9l-49.3-.3-41.7-152c-23-83.6-42.1-153.7-42.4-155.8l-.7-3.7H408l1 2.2zm174.2-1.7c.5.5-82.7 292.4-83.6 293.2-.5.5-.5.4-23-88l-19.3-75.8 15.8-64c8.7-35.2 16.1-64.5 16.4-65 .6-.9 92.7-1.3 93.7-.4zm124.8 124V606h89v63H667.5l-31.3-31.3-31.2-31.2v-187l31.2-31.2 31.3-31.3H708v124.5zM877.8 388l27.2 31v32H802v-31h-77v-63h125.6l27.2 31zM905 582.5V669h-91V558h-51v-62h142v86.5z"/></svg>